<svg viewBox = "0 0 141 140" width="141" height="140" xmlns="http://www.w3.org/2000/svg"><g transform="matrix(1 0 0 1 70.5 70)"  ><g style=""   ><g transform="matrix(1 0 0 1 -18.96 13.46)"  ><path style="stroke: none; stroke-width: 1; stroke-dasharray: none; stroke-linecap: butt; stroke-dashoffset: 0; stroke-linejoin: miter; stroke-miterlimit: 4; fill: rgb(52,12,185); fill-rule: nonzero; opacity: 1;"  transform=" translate(-51.54, -83.46)" d="M 87.326 83.5545 C 87.326 84.5945 86.6953 85.5321 85.7233 85.9081 L 70.698 91.6721 C 65.4113 93.7013 61.2673 97.9305 59.3233 103.268 L 53.61 119.011 C 53.5687 119.128 53.4793 119.211 53.4207 119.317 C 53.3727 119.405 53.3247 119.49 53.2647 119.571 C 53.1727 119.692 53.082 119.801 52.9673 119.899 C 52.7913 120.056 52.598 120.194 52.382 120.289 C 52.246 120.34 52.1087 120.39 51.9727 120.409 C 51.8367 120.442 51.7007 120.46 51.5633 120.46 L 51.1207 120.409 C 50.9833 120.39 50.8473 120.34 50.71 120.289 C 50.486 120.192 50.2887 120.051 50.11 119.889 C 50.0007 119.795 49.9113 119.688 49.822 119.572 C 49.77 119.502 49.7287 119.43 49.686 119.357 C 49.614 119.239 49.5153 119.142 49.466 119.011 L 43.7527 103.268 C 41.8247 97.9305 37.6807 93.7013 32.3953 91.6721 L 17.37 85.9081 C 16.398 85.5321 15.75 84.5945 15.75 83.5545 C 15.75 82.4628 16.466 81.4904 17.506 81.1664 L 31.2513 76.8346 C 37.2033 74.9586 41.894 70.3545 43.906 64.4534 L 49.4993 47.9278 C 49.5673 47.7414 49.6527 47.5706 49.7553 47.4174 C 49.8233 47.3133 49.8927 47.2117 49.994 47.1269 C 50.1993 46.9054 50.4553 46.7346 50.762 46.6149 C 50.8473 46.581 50.95 46.5466 51.0513 46.5305 C 51.206 46.4773 51.3753 46.4612 51.546 46.4612 C 51.7167 46.4612 51.8873 46.4773 52.0407 46.5305 C 52.1433 46.5466 52.246 46.581 52.3313 46.6149 C 52.6033 46.7174 52.842 46.8878 53.0473 47.0758 C 53.1327 47.1602 53.2007 47.2466 53.2687 47.3305 C 53.4047 47.5185 53.5247 47.7054 53.5927 47.9278 L 59.186 64.4534 C 61.182 70.3545 65.8887 74.9586 71.8233 76.8346 L 85.5687 81.1664 C 86.626 81.4904 87.326 82.4628 87.326 83.5545 Z" stroke-linecap="round" /></g><g transform="matrix(1 0 0 1 36.1 -16.13)"  ><path style="stroke: none; stroke-width: 1; stroke-dasharray: none; stroke-linecap: butt; stroke-dashoffset: 0; stroke-linejoin: miter; stroke-miterlimit: 4; fill: rgb(5,189,159); fill-rule: nonzero; opacity: 1;"  transform=" translate(-106.6, -53.87)" d="M 126.193 53.9185 C 126.193 54.4878 125.848 55.0013 125.316 55.2065 L 117.088 58.3638 C 114.193 59.4748 111.924 61.7904 110.86 64.7133 L 107.732 73.333 C 107.709 73.3972 107.66 73.4425 107.628 73.5013 C 107.601 73.5493 107.576 73.5961 107.543 73.6398 C 107.492 73.7054 107.443 73.7654 107.38 73.8185 C 107.284 73.9065 107.177 73.98 107.059 74.033 C 106.985 74.0612 106.909 74.0893 106.835 74.0988 C 106.76 74.1174 106.685 74.1269 106.611 74.1269 L 106.368 74.0988 C 106.293 74.0893 106.219 74.0612 106.144 74.033 C 106.021 73.9784 105.913 73.9024 105.816 73.8149 C 105.755 73.7628 105.707 73.704 105.657 73.6414 C 105.629 73.6024 105.607 73.5638 105.583 73.5237 C 105.544 73.4586 105.489 73.4054 105.463 73.333 L 102.335 64.7133 C 101.279 61.7904 99.0093 59.4748 96.1147 58.3638 L 87.888 55.2065 C 87.3547 55.0013 87 54.4878 87 53.9185 C 87 53.3201 87.3933 52.7893 87.9627 52.6106 L 95.4893 50.2398 C 98.748 49.2117 101.316 46.6904 102.419 43.4602 L 105.481 34.4117 C 105.519 34.3081 105.565 34.2144 105.621 34.1305 C 105.659 34.0748 105.696 34.0185 105.752 33.9721 C 105.864 33.8508 106.004 33.756 106.172 33.692 C 106.219 33.6732 106.275 33.6545 106.331 33.644 C 106.415 33.6174 106.508 33.6081 106.601 33.6081 C 106.695 33.6081 106.788 33.6174 106.872 33.644 C 106.929 33.6545 106.985 33.6732 107.031 33.692 C 107.18 33.7477 107.312 33.8414 107.424 33.944 C 107.471 33.9904 107.508 34.0373 107.544 34.0852 C 107.62 34.1868 107.684 34.2893 107.723 34.4117 L 110.785 43.4602 C 111.877 46.6904 114.456 49.2117 117.705 50.2398 L 125.232 52.6106 C 125.811 52.7893 126.193 53.3201 126.193 53.9185 Z" stroke-linecap="round" /></g><g transform="matrix(1 0 0 1 3.4 -37.66)"  ><path style="stroke: none; stroke-width: 1; stroke-dasharray: none; stroke-linecap: butt; stroke-dashoffset: 0; stroke-linejoin: miter; stroke-miterlimit: 4; fill: rgb(52,12,185); fill-rule: nonzero; opacity: 1;"  transform=" translate(-73.9, -32.34)" d="M 86.8093 32.3744 C 86.8093 32.7489 86.5813 33.0864 86.2307 33.2224 L 80.8133 35.3009 C 78.9067 36.0333 77.412 37.5583 76.712 39.4823 L 74.652 45.1583 C 74.6373 45.2009 74.604 45.2301 74.5827 45.2692 C 74.5653 45.3 74.548 45.3317 74.5267 45.3599 C 74.4933 45.4036 74.4613 45.4437 74.42 45.4785 C 74.356 45.5359 74.2867 45.5848 74.2093 45.6181 C 74.1587 45.6369 74.1107 45.6572 74.0613 45.6624 C 74.012 45.6744 73.9627 45.6796 73.9133 45.6796 L 73.7533 45.6624 C 73.704 45.6572 73.656 45.6369 73.6053 45.6181 C 73.5253 45.5837 73.4547 45.5333 73.3893 45.4755 C 73.3507 45.4411 73.3187 45.4025 73.2853 45.3609 C 73.268 45.3369 73.252 45.3104 73.2373 45.2823 C 73.2107 45.2395 73.1747 45.2061 73.1573 45.1583 L 71.0973 39.4823 C 70.4027 37.5583 68.908 36.0333 67.0013 35.3009 L 61.584 33.2224 C 61.2333 33.0864 61 32.7489 61 32.3744 C 61 31.9796 61.2587 31.6291 61.6333 31.5119 L 66.5893 29.9504 C 68.736 29.2744 70.4267 27.6145 71.1533 25.4864 L 73.1693 19.5276 C 73.1933 19.4599 73.2253 19.3984 73.2613 19.3421 C 73.2867 19.3061 73.3107 19.2692 73.348 19.2385 C 73.4213 19.1583 73.5147 19.0968 73.6253 19.0541 C 73.656 19.0421 73.692 19.0291 73.7293 19.0224 C 73.784 19.0036 73.8467 19 73.908 19 C 73.9693 19 74.0307 19.0036 74.0853 19.0224 C 74.1227 19.0291 74.1587 19.0421 74.1907 19.0541 C 74.2893 19.0905 74.3747 19.1531 74.448 19.2208 C 74.48 19.2504 74.504 19.2812 74.528 19.3119 C 74.5773 19.3796 74.6213 19.4479 74.6453 19.5276 L 76.6627 25.4864 C 77.3813 27.6145 79.0787 29.2744 81.2187 29.9504 L 86.176 31.5119 C 86.556 31.6291 86.8093 31.9796 86.8093 32.3744 Z" stroke-linecap="round" /></g></g></g></svg>